<svg width="96" height="78" viewBox="0 0 96 78" fill="none" xmlns="http://www.w3.org/2000/svg">
  <path d="M10 20.5C10 16.9101 12.9101 14 16.5 14H35.1901C37.5047 14 39.6477 15.2298 40.8161 17.23L42.3839 19.92C43.5523 21.9202 45.6953 23.15 48.0099 23.15H79.5C83.0899 23.15 86 26.0601 86 29.65V31H10V20.5Z" fill="#F8D55A"/>
  <path d="M10 31H86V58.5C86 62.0899 83.0899 65 79.5 65H16.5C12.9101 65 10 62.0899 10 58.5V31Z" fill="#F0C243"/>
  <path d="M10 34.25C10 31.9028 11.9028 30 14.25 30H81.75C84.0972 30 86 31.9028 86 34.25V39H10V34.25Z" fill="#FFE07A"/>
  <path d="M14 39H82V57.5C82 59.9853 79.9853 62 77.5 62H18.5C16.0147 62 14 59.9853 14 57.5V39Z" fill="#E7B22A"/>
  <path d="M16.5 14.75H35.1901C37.2387 14.75 39.1352 15.8385 40.1696 17.6091L41.7374 20.2991C43.039 22.5271 45.4258 23.9 48.0099 23.9H79.5C82.6757 23.9 85.25 26.4744 85.25 29.65V58.5C85.25 61.6757 82.6757 64.25 79.5 64.25H16.5C13.3244 64.25 10.75 61.6757 10.75 58.5V20.5C10.75 17.3244 13.3244 14.75 16.5 14.75Z" stroke="#A87500" stroke-width="1.5"/>
  <path d="M18 47.5H54" stroke="#FFD976" stroke-width="3" stroke-linecap="round"/>
  <path d="M18 54H44" stroke="#FFD976" stroke-width="3" stroke-linecap="round"/>
</svg>
